<?xml version="1.0" standalone="no"?>
<!DOCTYPE svg PUBLIC "-//W3C//DTD SVG 20010904//EN"
 "http://www.w3.org/TR/2001/REC-SVG-20010904/DTD/svg10.dtd">
<svg version="1.0" xmlns="http://www.w3.org/2000/svg"
 width="378.000000pt" height="378.000000pt" viewBox="0 0 378.000000 378.000000"
 preserveAspectRatio="xMidYMid meet">

<g transform="translate(0.000000,378.000000) scale(0.100000,-0.100000)"
fill="#000000" stroke="none">
<path d="M2040 3519 c-663 -36 -805 -48 -886 -71 -44 -13 -102 -36 -128 -52
-85 -50 -134 -144 -123 -237 4 -31 105 -264 312 -719 168 -370 304 -674 303
-676 -2 -1 -219 -23 -483 -48 -633 -60 -572 -51 -567 -87 4 -29 7 -30 41 -25
91 13 161 17 161 9 0 -5 36 -246 80 -537 44 -291 77 -533 73 -540 -4 -6 -35
-48 -71 -93 -35 -46 -58 -83 -50 -83 7 0 87 7 178 15 91 8 167 14 170 15 2 0
-33 38 -79 84 l-83 83 -80 533 c-44 292 -78 533 -76 535 1 1 40 6 85 10 l83 7
0 -90 c0 -223 75 -418 208 -543 53 -50 66 -70 88 -131 58 -161 150 -304 262
-409 174 -163 351 -227 596 -216 149 6 246 31 382 97 395 192 630 643 584
1120 -9 98 -39 258 -65 346 -7 24 -23 21 233 45 l122 12 0 28 c0 35 29 36
-335 0 -159 -16 -290 -28 -291 -27 -1 0 18 285 42 631 24 347 43 664 44 706 0
142 -50 233 -158 286 -55 27 -62 28 -232 29 -96 1 -249 -2 -340 -7z m511 -61
c106 -36 159 -114 159 -231 0 -82 -60 -970 -66 -976 -8 -9 -1199 -159 -1205
-153 -21 22 -471 1032 -476 1067 -3 23 0 59 6 78 15 44 77 102 137 127 94 41
166 47 959 89 239 13 448 12 486 -1z m85 -1405 c-9 -165 -12 -182 -39 -188
-35 -7 -1008 -97 -1012 -93 -6 7 -115 251 -113 253 3 2 1126 151 1157 154 11
1 12 -22 7 -126z m268 -276 c26 -90 47 -198 53 -281 l6 -78 -24 12 c-154 81
-609 346 -597 348 27 5 472 50 510 51 36 1 37 0 52 -52z m-314 -220 l375 -212
-3 -65 c-4 -71 -19 -180 -26 -187 -9 -10 -1390 -613 -1402 -613 -16 0 -112
104 -157 172 -37 56 -109 195 -121 234 -6 21 -6 20 62 -2 195 -66 433 -45 599
52 123 71 225 209 258 345 21 92 19 263 -5 379 -11 52 -20 96 -20 97 0 2 35 9
55 12 6 0 179 -95 385 -212z m-480 102 c24 -117 26 -290 5 -374 -46 -175 -190
-310 -388 -362 -81 -21 -251 -21 -338 1 -272 69 -428 300 -429 634 0 89 1 92
23 93 12 0 265 24 562 53 297 29 541 51 543 50 2 -1 12 -44 22 -95z m804 -661
c-3 -13 -20 -54 -37 -91 l-30 -69 -34 59 -33 58 68 32 c37 17 68 32 70 32 2 1
0 -9 -4 -21z m-146 -143 c23 -41 42 -78 42 -81 0 -11 -90 -134 -98 -134 -4 0
-15 14 -25 32 -16 29 -17 32 -2 41 14 7 11 18 -25 82 -22 41 -40 78 -40 83 0
8 80 48 101 51 3 1 24 -33 47 -74z m-252 -125 c27 -44 54 -78 59 -76 6 2 17 7
26 10 11 5 24 -5 44 -36 l28 -42 -44 -38 c-24 -21 -63 -51 -85 -68 l-42 -30
-41 63 c-38 58 -39 62 -21 72 18 9 15 16 -35 95 l-54 85 42 22 c23 12 49 22
58 23 10 0 36 -32 65 -80z m-260 -115 c32 -47 61 -85 66 -85 5 0 18 4 28 10
15 8 24 0 59 -55 l40 -65 -31 -16 c-37 -19 -155 -64 -168 -64 -5 0 -25 24 -45
53 -34 50 -35 53 -17 67 18 15 17 19 -35 100 -29 46 -53 87 -53 90 0 6 79 48
92 49 5 1 33 -37 64 -84z m-248 -125 c32 -47 62 -84 68 -83 5 1 16 4 24 7 10
4 26 -10 48 -42 l33 -47 -28 -6 c-15 -4 -59 -7 -98 -7 l-70 -1 -77 114 -77
114 52 24 c28 13 55 21 59 18 4 -4 34 -45 66 -91z m-163 -76 c36 -53 64 -98
63 -99 -10 -8 -155 32 -213 60 -119 56 -119 55 -23 97 46 20 88 36 95 37 6 1
41 -42 78 -95z"/>
</g>
</svg>
